<svg width="1440" height="101" viewBox="0 0 1440 101" fill="none" xmlns="http://www.w3.org/2000/svg">
<path d="M1440.64 37.0448L1400.59 41.7054C1360.54 46.2066 1280.46 55.7672 1200.2 47.9008C1119.94 40.1939 1039.51 15.4588 959.277 9.86553C879.04 4.27223 798.992 17.8207 718.922 29.2556C638.851 40.531 558.763 50.0916 478.671 59.2535C398.579 68.4153 318.491 77.9759 238.212 67.9959C157.932 58.016 77.4678 29.293 37.2331 14.6524L-2.99999 0.171249L-1.87218 115.022L38.2149 114.628C78.3019 114.235 158.476 113.447 238.65 112.66C318.824 111.873 398.998 111.086 479.172 110.298C559.347 109.511 639.521 108.724 719.695 107.936C799.869 107.149 880.043 106.362 960.217 105.574C1040.39 104.787 1120.57 104 1200.74 103.213C1280.91 102.425 1361.09 101.638 1401.17 101.244L1441.26 100.851L1440.64 37.0448Z" fill="#D5DEAF"/>
</svg>
