<svg width="1440" height="73" viewBox="0 0 1440 73" fill="none" xmlns="http://www.w3.org/2000/svg">
<path d="M0.717721 49.7668L40.7379 52.9682C80.7558 56.0416 160.8 62.6362 240.598 55.2587C320.399 48.0091 399.961 27.1071 479.791 21.5521C559.622 15.997 639.722 25.7888 719.792 33.8861C799.86 41.8555 879.903 48.45 959.941 54.7249C1039.98 60.9997 1120.02 67.5942 1199.79 58.5222C1279.56 49.4501 1359.07 25.3509 1398.82 13.0775L1438.57 0.931982L1440.18 93.0133L1400.22 93.233C1360.26 93.4527 1280.34 93.8921 1200.42 94.3316C1120.5 94.771 1040.58 95.2104 960.659 95.6499C880.739 96.0893 800.818 96.5287 720.898 96.9682C640.978 97.4076 561.057 97.847 481.137 98.2865C401.217 98.7259 321.296 99.1653 241.376 99.6048C161.456 100.044 81.5352 100.484 41.575 100.703L1.61487 100.923L0.717721 49.7668Z" fill="#987D62"/>
</svg>
