<svg width="1440" height="101" viewBox="0 0 1440 101" fill="none" xmlns="http://www.w3.org/2000/svg">
<path d="M-2.37332 37.0448L37.6718 41.7054C77.7185 46.2066 157.806 55.7672 238.066 47.9008C318.323 40.1939 398.748 15.4588 478.985 9.86554C559.221 4.27223 639.27 17.8207 719.34 29.2556C799.411 40.531 879.499 50.0916 959.591 59.2535C1039.68 68.4153 1119.77 77.9759 1200.05 67.9959C1280.33 58.016 1360.79 29.293 1401.03 14.6524L1441.26 0.171249L1440.13 115.022L1400.05 114.628C1359.96 114.235 1279.79 113.447 1199.61 112.66C1119.44 111.873 1039.26 111.086 959.089 110.298C878.915 109.511 798.741 108.724 718.567 107.936C638.393 107.149 558.219 106.362 478.045 105.574C397.871 104.787 317.697 104 237.522 103.213C157.348 102.425 77.1742 101.638 37.0872 101.244L-2.99988 100.851L-2.37332 37.0448Z" fill="white"/>
</svg>
