<svg width="1439" height="113" viewBox="0 0 1439 113" fill="none" xmlns="http://www.w3.org/2000/svg">
<path d="M0.598899 63.9736L40.5792 67.8484C80.558 71.5637 160.521 79.5527 240.313 70.1146C320.106 60.8361 399.733 34.5293 479.547 27.3644C559.361 20.1994 639.363 32.1762 719.345 42.0395C799.324 51.7432 879.287 59.7322 959.246 67.3223C1039.21 74.9125 1119.17 82.9014 1198.94 71.3498C1278.71 59.7982 1358.3 29.5035 1398.09 14.0771L1439.01 5.30719e-07L1439.01 113.661L1399.07 114.053C1359.13 114.445 1279.26 115.23 1199.38 116.014C1119.5 116.798 1039.62 117.583 959.748 118.367C879.871 119.151 799.994 119.936 720.117 120.72C640.24 121.505 560.363 122.289 480.487 123.073C400.61 123.858 320.733 124.642 240.856 125.426C160.979 126.211 81.1023 126.995 41.1639 127.387L0.59941 127.387L0.598956 96L0.598899 63.9736Z" fill="white"/>
</svg>
