<svg width="1440" height="122" viewBox="0 0 1440 122" fill="none" xmlns="http://www.w3.org/2000/svg">
<path d="M-0.465622 68.5499L39.5531 72.7064C79.5702 76.6929 159.61 85.261 239.468 75.2503C319.327 65.4096 399.008 37.4153 478.889 29.8279C558.771 22.2405 638.853 35.0601 718.912 45.6264C798.97 56.0226 879.01 64.5907 959.046 72.7337C1039.08 80.8767 1119.12 89.4448 1198.96 77.1808C1278.79 64.9168 1358.43 32.671 1398.25 16.2505L1438.07 3.35107e-05L1439.27 122.442L1399.3 122.834C1359.32 123.227 1279.37 124.012 1199.42 124.797C1119.48 125.582 1039.53 126.367 959.58 127.152C879.632 127.937 799.684 128.722 719.736 129.507C639.788 130.293 559.839 131.078 479.891 131.863C399.943 132.648 319.995 133.433 240.047 134.218C160.099 135.003 80.1505 135.788 40.1764 136.181L0.202351 136.573L-0.465622 68.5499Z" fill="#987D62"/>
</svg>
